<?xml version="1.0" encoding="UTF-8" standalone="no"?>
<!DOCTYPE svg PUBLIC "-//W3C//DTD SVG 1.1//EN"
 "http://www.w3.org/Graphics/SVG/1.1/DTD/svg11.dtd">
<!-- Generated by graphviz version 2.43.0 (0)
 -->
<!-- Title: %3 Pages: 1 -->
<svg width="1388pt" height="332pt"
 viewBox="0.00 0.00 1388.21 332.00" xmlns="http://www.w3.org/2000/svg" xmlns:xlink="http://www.w3.org/1999/xlink">
<g id="graph0" class="graph" transform="scale(1 1) rotate(0) translate(4 328)">
<title>%3</title>
<polygon fill="white" stroke="transparent" points="-4,4 -4,-328 1384.21,-328 1384.21,4 -4,4"/>
<!-- [root] aws_instance.ec2_instance (expand) -->
<g id="node1" class="node">
<title>[root] aws_instance.ec2_instance (expand)</title>
<polygon fill="none" stroke="black" points="995.88,-180 788.88,-180 788.88,-144 995.88,-144 995.88,-180"/>
<text text-anchor="middle" x="892.38" y="-158.3" font-family="Times,serif" font-size="14.00">aws_instance.ec2_instance</text>
</g>
<!-- [root] provider[&quot;registry.terraform.io/hashicorp/aws&quot;] -->
<g id="node3" class="node">
<title>[root] provider[&quot;registry.terraform.io/hashicorp/aws&quot;]</title>
<polygon fill="none" stroke="black" points="325.38,-108 0.12,-90 325.38,-72 650.65,-90 325.38,-108"/>
<text text-anchor="middle" x="325.38" y="-86.3" font-family="Times,serif" font-size="14.00">provider[&quot;registry.terraform.io/hashicorp/aws&quot;]</text>
</g>
<!-- [root] aws_instance.ec2_instance (expand)&#45;&gt;[root] provider[&quot;registry.terraform.io/hashicorp/aws&quot;] -->
<g id="edge1" class="edge">
<title>[root] aws_instance.ec2_instance (expand)&#45;&gt;[root] provider[&quot;registry.terraform.io/hashicorp/aws&quot;]</title>
<path fill="none" stroke="black" d="M788.71,-148.2C687.12,-135.66 533.06,-116.64 430.85,-104.02"/>
<polygon fill="black" stroke="black" points="431.17,-100.53 420.81,-102.78 430.31,-107.48 431.17,-100.53"/>
</g>
<!-- [root] var.instance_ami -->
<g id="node5" class="node">
<title>[root] var.instance_ami</title>
<polygon fill="none" stroke="black" points="798.38,-108 668.38,-108 668.38,-72 804.38,-72 804.38,-102 798.38,-108"/>
<polyline fill="none" stroke="black" points="798.38,-108 798.38,-102 "/>
<polyline fill="none" stroke="black" points="804.38,-102 798.38,-102 "/>
<text text-anchor="middle" x="736.38" y="-86.3" font-family="Times,serif" font-size="14.00">var.instance_ami</text>
</g>
<!-- [root] aws_instance.ec2_instance (expand)&#45;&gt;[root] var.instance_ami -->
<g id="edge2" class="edge">
<title>[root] aws_instance.ec2_instance (expand)&#45;&gt;[root] var.instance_ami</title>
<path fill="none" stroke="black" d="M854.22,-143.88C832.99,-134.35 806.37,-122.41 783.81,-112.28"/>
<polygon fill="black" stroke="black" points="784.98,-108.97 774.42,-108.07 782.11,-115.36 784.98,-108.97"/>
</g>
<!-- [root] var.instance_tags -->
<g id="node6" class="node">
<title>[root] var.instance_tags</title>
<polygon fill="none" stroke="black" points="956.38,-108 822.38,-108 822.38,-72 962.38,-72 962.38,-102 956.38,-108"/>
<polyline fill="none" stroke="black" points="956.38,-108 956.38,-102 "/>
<polyline fill="none" stroke="black" points="962.38,-102 956.38,-102 "/>
<text text-anchor="middle" x="892.38" y="-86.3" font-family="Times,serif" font-size="14.00">var.instance_tags</text>
</g>
<!-- [root] aws_instance.ec2_instance (expand)&#45;&gt;[root] var.instance_tags -->
<g id="edge3" class="edge">
<title>[root] aws_instance.ec2_instance (expand)&#45;&gt;[root] var.instance_tags</title>
<path fill="none" stroke="black" d="M892.38,-143.7C892.38,-135.98 892.38,-126.71 892.38,-118.11"/>
<polygon fill="black" stroke="black" points="895.88,-118.1 892.38,-108.1 888.88,-118.1 895.88,-118.1"/>
</g>
<!-- [root] var.instance_type -->
<g id="node7" class="node">
<title>[root] var.instance_type</title>
<polygon fill="none" stroke="black" points="1115.88,-108 980.88,-108 980.88,-72 1121.88,-72 1121.88,-102 1115.88,-108"/>
<polyline fill="none" stroke="black" points="1115.88,-108 1115.88,-102 "/>
<polyline fill="none" stroke="black" points="1121.88,-102 1115.88,-102 "/>
<text text-anchor="middle" x="1051.38" y="-86.3" font-family="Times,serif" font-size="14.00">var.instance_type</text>
</g>
<!-- [root] aws_instance.ec2_instance (expand)&#45;&gt;[root] var.instance_type -->
<g id="edge4" class="edge">
<title>[root] aws_instance.ec2_instance (expand)&#45;&gt;[root] var.instance_type</title>
<path fill="none" stroke="black" d="M931.28,-143.88C953.01,-134.31 980.29,-122.3 1003.35,-112.15"/>
<polygon fill="black" stroke="black" points="1004.87,-115.3 1012.61,-108.07 1002.05,-108.89 1004.87,-115.3"/>
</g>
<!-- [root] var.key_name -->
<g id="node8" class="node">
<title>[root] var.key_name</title>
<polygon fill="none" stroke="black" points="1246.88,-108 1139.88,-108 1139.88,-72 1252.88,-72 1252.88,-102 1246.88,-108"/>
<polyline fill="none" stroke="black" points="1246.88,-108 1246.88,-102 "/>
<polyline fill="none" stroke="black" points="1252.88,-102 1246.88,-102 "/>
<text text-anchor="middle" x="1196.38" y="-86.3" font-family="Times,serif" font-size="14.00">var.key_name</text>
</g>
<!-- [root] aws_instance.ec2_instance (expand)&#45;&gt;[root] var.key_name -->
<g id="edge5" class="edge">
<title>[root] aws_instance.ec2_instance (expand)&#45;&gt;[root] var.key_name</title>
<path fill="none" stroke="black" d="M972.77,-143.96C1016.68,-134.47 1072.24,-122.16 1129.7,-108.37"/>
<polygon fill="black" stroke="black" points="1130.79,-111.71 1139.69,-105.96 1129.15,-104.9 1130.79,-111.71"/>
</g>
<!-- [root] output.ec2_public_ip -->
<g id="node2" class="node">
<title>[root] output.ec2_public_ip</title>
<polygon fill="none" stroke="black" points="772.38,-252 614.38,-252 614.38,-216 778.38,-216 778.38,-246 772.38,-252"/>
<polyline fill="none" stroke="black" points="772.38,-252 772.38,-246 "/>
<polyline fill="none" stroke="black" points="778.38,-246 772.38,-246 "/>
<text text-anchor="middle" x="696.38" y="-230.3" font-family="Times,serif" font-size="14.00">output.ec2_public_ip</text>
</g>
<!-- [root] output.ec2_public_ip&#45;&gt;[root] aws_instance.ec2_instance (expand) -->
<g id="edge6" class="edge">
<title>[root] output.ec2_public_ip&#45;&gt;[root] aws_instance.ec2_instance (expand)</title>
<path fill="none" stroke="black" d="M744.08,-215.97C771.46,-206.19 806.04,-193.84 834.92,-183.52"/>
<polygon fill="black" stroke="black" points="836.23,-186.77 844.47,-180.11 833.88,-180.18 836.23,-186.77"/>
</g>
<!-- [root] var.aws_region -->
<g id="node4" class="node">
<title>[root] var.aws_region</title>
<polygon fill="none" stroke="black" points="380.88,-36 263.88,-36 263.88,0 386.88,0 386.88,-30 380.88,-36"/>
<polyline fill="none" stroke="black" points="380.88,-36 380.88,-30 "/>
<polyline fill="none" stroke="black" points="386.88,-30 380.88,-30 "/>
<text text-anchor="middle" x="325.38" y="-14.3" font-family="Times,serif" font-size="14.00">var.aws_region</text>
</g>
<!-- [root] provider[&quot;registry.terraform.io/hashicorp/aws&quot;]&#45;&gt;[root] var.aws_region -->
<g id="edge8" class="edge">
<title>[root] provider[&quot;registry.terraform.io/hashicorp/aws&quot;]&#45;&gt;[root] var.aws_region</title>
<path fill="none" stroke="black" d="M325.38,-71.7C325.38,-63.98 325.38,-54.71 325.38,-46.11"/>
<polygon fill="black" stroke="black" points="328.88,-46.1 325.38,-36.1 321.88,-46.1 328.88,-46.1"/>
</g>
<!-- [root] provider[&quot;registry.terraform.io/hashicorp/aws&quot;] (close) -->
<g id="node9" class="node">
<title>[root] provider[&quot;registry.terraform.io/hashicorp/aws&quot;] (close)</title>
<ellipse fill="none" stroke="black" cx="1088.38" cy="-234" rx="291.65" ry="18"/>
<text text-anchor="middle" x="1088.38" y="-230.3" font-family="Times,serif" font-size="14.00">[root] provider[&quot;registry.terraform.io/hashicorp/aws&quot;] (close)</text>
</g>
<!-- [root] provider[&quot;registry.terraform.io/hashicorp/aws&quot;] (close)&#45;&gt;[root] aws_instance.ec2_instance (expand) -->
<g id="edge7" class="edge">
<title>[root] provider[&quot;registry.terraform.io/hashicorp/aws&quot;] (close)&#45;&gt;[root] aws_instance.ec2_instance (expand)</title>
<path fill="none" stroke="black" d="M1041.43,-216.23C1013.96,-206.42 979.06,-193.96 949.94,-183.56"/>
<polygon fill="black" stroke="black" points="950.9,-180.18 940.31,-180.12 948.55,-186.78 950.9,-180.18"/>
</g>
<!-- [root] root -->
<g id="node10" class="node">
<title>[root] root</title>
<ellipse fill="none" stroke="black" cx="892.38" cy="-306" rx="58.49" ry="18"/>
<text text-anchor="middle" x="892.38" y="-302.3" font-family="Times,serif" font-size="14.00">[root] root</text>
</g>
<!-- [root] root&#45;&gt;[root] output.ec2_public_ip -->
<g id="edge9" class="edge">
<title>[root] root&#45;&gt;[root] output.ec2_public_ip</title>
<path fill="none" stroke="black" d="M855.52,-291.83C826.85,-281.6 786.57,-267.21 753.71,-255.47"/>
<polygon fill="black" stroke="black" points="754.81,-252.15 744.21,-252.08 752.45,-258.74 754.81,-252.15"/>
</g>
<!-- [root] root&#45;&gt;[root] provider[&quot;registry.terraform.io/hashicorp/aws&quot;] (close) -->
<g id="edge10" class="edge">
<title>[root] root&#45;&gt;[root] provider[&quot;registry.terraform.io/hashicorp/aws&quot;] (close)</title>
<path fill="none" stroke="black" d="M929.25,-291.83C958.11,-281.52 998.76,-267.01 1031.75,-255.23"/>
<polygon fill="black" stroke="black" points="1033.03,-258.48 1041.28,-251.82 1030.68,-251.89 1033.03,-258.48"/>
</g>
</g>
</svg>
