<?xml version="1.0" encoding="UTF-8" standalone="no"?>
<!DOCTYPE svg PUBLIC "-//W3C//DTD SVG 1.1//EN"
 "http://www.w3.org/Graphics/SVG/1.1/DTD/svg11.dtd">
<!-- Generated by graphviz version 2.43.0 (0)
 -->
<!-- Title: %3 Pages: 1 -->
<svg width="3832pt" height="692pt"
 viewBox="0.00 0.00 3832.41 692.00" xmlns="http://www.w3.org/2000/svg" xmlns:xlink="http://www.w3.org/1999/xlink">
<g id="graph0" class="graph" transform="scale(1 1) rotate(0) translate(4 688)">
<title>%3</title>
<polygon fill="white" stroke="transparent" points="-4,4 -4,-688 3828.41,-688 3828.41,4 -4,4"/>
<!-- [root] module.ec2_instance.aws_instance.ec2_instance (expand) -->
<g id="node1" class="node">
<title>[root] module.ec2_instance.aws_instance.ec2_instance (expand)</title>
<polygon fill="none" stroke="black" points="1810.58,-468 1450.58,-468 1450.58,-432 1810.58,-432 1810.58,-468"/>
<text text-anchor="middle" x="1630.58" y="-446.3" font-family="Times,serif" font-size="14.00">module.ec2_instance.aws_instance.ec2_instance</text>
</g>
<!-- [root] module.ec2_instance.aws_security_group.security_group (expand) -->
<g id="node2" class="node">
<title>[root] module.ec2_instance.aws_security_group.security_group (expand)</title>
<polygon fill="none" stroke="black" points="2821.58,-396 2399.58,-396 2399.58,-360 2821.58,-360 2821.58,-396"/>
<text text-anchor="middle" x="2610.58" y="-374.3" font-family="Times,serif" font-size="14.00">module.ec2_instance.aws_security_group.security_group</text>
</g>
<!-- [root] module.ec2_instance.aws_instance.ec2_instance (expand)&#45;&gt;[root] module.ec2_instance.aws_security_group.security_group (expand) -->
<g id="edge2" class="edge">
<title>[root] module.ec2_instance.aws_instance.ec2_instance (expand)&#45;&gt;[root] module.ec2_instance.aws_security_group.security_group (expand)</title>
<path fill="none" stroke="black" d="M1810.65,-436.82C1962.18,-426.49 2184.9,-411.09 2389.49,-396.08"/>
<polygon fill="black" stroke="black" points="2389.81,-399.56 2399.52,-395.34 2389.29,-392.58 2389.81,-399.56"/>
</g>
<!-- [root] module.ec2_instance.var.instance_ami (expand) -->
<g id="node15" class="node">
<title>[root] module.ec2_instance.var.instance_ami (expand)</title>
<ellipse fill="none" stroke="black" cx="803.58" cy="-306" rx="259.95" ry="18"/>
<text text-anchor="middle" x="803.58" y="-302.3" font-family="Times,serif" font-size="14.00">[root] module.ec2_instance.var.instance_ami (expand)</text>
</g>
<!-- [root] module.ec2_instance.aws_instance.ec2_instance (expand)&#45;&gt;[root] module.ec2_instance.var.instance_ami (expand) -->
<g id="edge3" class="edge">
<title>[root] module.ec2_instance.aws_instance.ec2_instance (expand)&#45;&gt;[root] module.ec2_instance.var.instance_ami (expand)</title>
<path fill="none" stroke="black" d="M1450.56,-447.75C1229.52,-444.58 877.92,-433.6 830.58,-396 812.25,-381.44 806.02,-354.84 804.06,-334.5"/>
<polygon fill="black" stroke="black" points="807.54,-333.98 803.38,-324.24 800.55,-334.45 807.54,-333.98"/>
</g>
<!-- [root] module.ec2_instance.var.instance_tags (expand) -->
<g id="node16" class="node">
<title>[root] module.ec2_instance.var.instance_tags (expand)</title>
<ellipse fill="none" stroke="black" cx="262.58" cy="-306" rx="262.65" ry="18"/>
<text text-anchor="middle" x="262.58" y="-302.3" font-family="Times,serif" font-size="14.00">[root] module.ec2_instance.var.instance_tags (expand)</text>
</g>
<!-- [root] module.ec2_instance.aws_instance.ec2_instance (expand)&#45;&gt;[root] module.ec2_instance.var.instance_tags (expand) -->
<g id="edge4" class="edge">
<title>[root] module.ec2_instance.aws_instance.ec2_instance (expand)&#45;&gt;[root] module.ec2_instance.var.instance_tags (expand)</title>
<path fill="none" stroke="black" d="M1450.28,-442.52C1282.84,-435.3 1026.79,-421.17 805.58,-396 646.34,-377.88 462.62,-345.29 354.88,-324.97"/>
<polygon fill="black" stroke="black" points="355.5,-321.53 345.02,-323.11 354.19,-328.41 355.5,-321.53"/>
</g>
<!-- [root] module.ec2_instance.var.instance_type (expand) -->
<g id="node17" class="node">
<title>[root] module.ec2_instance.var.instance_type (expand)</title>
<ellipse fill="none" stroke="black" cx="1382.58" cy="-306" rx="263.45" ry="18"/>
<text text-anchor="middle" x="1382.58" y="-302.3" font-family="Times,serif" font-size="14.00">[root] module.ec2_instance.var.instance_type (expand)</text>
</g>
<!-- [root] module.ec2_instance.aws_instance.ec2_instance (expand)&#45;&gt;[root] module.ec2_instance.var.instance_type (expand) -->
<g id="edge5" class="edge">
<title>[root] module.ec2_instance.aws_instance.ec2_instance (expand)&#45;&gt;[root] module.ec2_instance.var.instance_type (expand)</title>
<path fill="none" stroke="black" d="M1470.55,-431.99C1427.93,-424 1389.97,-412.47 1376.58,-396 1362.67,-378.89 1366.09,-353.27 1371.86,-333.91"/>
<polygon fill="black" stroke="black" points="1375.27,-334.76 1375.12,-324.16 1368.63,-332.54 1375.27,-334.76"/>
</g>
<!-- [root] module.ec2_instance.var.key_name (expand) -->
<g id="node18" class="node">
<title>[root] module.ec2_instance.var.key_name (expand)</title>
<ellipse fill="none" stroke="black" cx="1630.58" cy="-378" rx="245.06" ry="18"/>
<text text-anchor="middle" x="1630.58" y="-374.3" font-family="Times,serif" font-size="14.00">[root] module.ec2_instance.var.key_name (expand)</text>
</g>
<!-- [root] module.ec2_instance.aws_instance.ec2_instance (expand)&#45;&gt;[root] module.ec2_instance.var.key_name (expand) -->
<g id="edge6" class="edge">
<title>[root] module.ec2_instance.aws_instance.ec2_instance (expand)&#45;&gt;[root] module.ec2_instance.var.key_name (expand)</title>
<path fill="none" stroke="black" d="M1630.58,-431.7C1630.58,-423.98 1630.58,-414.71 1630.58,-406.11"/>
<polygon fill="black" stroke="black" points="1634.08,-406.1 1630.58,-396.1 1627.08,-406.1 1634.08,-406.1"/>
</g>
<!-- [root] module.ec2_instance.var.subnet_id (expand) -->
<g id="node19" class="node">
<title>[root] module.ec2_instance.var.subnet_id (expand)</title>
<ellipse fill="none" stroke="black" cx="2137.58" cy="-378" rx="244.26" ry="18"/>
<text text-anchor="middle" x="2137.58" y="-374.3" font-family="Times,serif" font-size="14.00">[root] module.ec2_instance.var.subnet_id (expand)</text>
</g>
<!-- [root] module.ec2_instance.aws_instance.ec2_instance (expand)&#45;&gt;[root] module.ec2_instance.var.subnet_id (expand) -->
<g id="edge7" class="edge">
<title>[root] module.ec2_instance.aws_instance.ec2_instance (expand)&#45;&gt;[root] module.ec2_instance.var.subnet_id (expand)</title>
<path fill="none" stroke="black" d="M1753.95,-431.97C1834.21,-420.89 1938.33,-406.51 2017.84,-395.53"/>
<polygon fill="black" stroke="black" points="2018.48,-398.98 2027.9,-394.14 2017.52,-392.04 2018.48,-398.98"/>
</g>
<!-- [root] module.ec2_instance.var.user_data (expand) -->
<g id="node20" class="node">
<title>[root] module.ec2_instance.var.user_data (expand)</title>
<ellipse fill="none" stroke="black" cx="1084.58" cy="-378" rx="245.06" ry="18"/>
<text text-anchor="middle" x="1084.58" y="-374.3" font-family="Times,serif" font-size="14.00">[root] module.ec2_instance.var.user_data (expand)</text>
</g>
<!-- [root] module.ec2_instance.aws_instance.ec2_instance (expand)&#45;&gt;[root] module.ec2_instance.var.user_data (expand) -->
<g id="edge8" class="edge">
<title>[root] module.ec2_instance.aws_instance.ec2_instance (expand)&#45;&gt;[root] module.ec2_instance.var.user_data (expand)</title>
<path fill="none" stroke="black" d="M1497.71,-431.97C1410.41,-420.77 1296.89,-406.22 1210.94,-395.2"/>
<polygon fill="black" stroke="black" points="1211.23,-391.71 1200.86,-393.91 1210.34,-398.65 1211.23,-391.71"/>
</g>
<!-- [root] module.ec2_instance.var.ssh_ip_address (expand) -->
<g id="node21" class="node">
<title>[root] module.ec2_instance.var.ssh_ip_address (expand)</title>
<ellipse fill="none" stroke="black" cx="2008.58" cy="-306" rx="269.15" ry="18"/>
<text text-anchor="middle" x="2008.58" y="-302.3" font-family="Times,serif" font-size="14.00">[root] module.ec2_instance.var.ssh_ip_address (expand)</text>
</g>
<!-- [root] module.ec2_instance.aws_security_group.security_group (expand)&#45;&gt;[root] module.ec2_instance.var.ssh_ip_address (expand) -->
<g id="edge9" class="edge">
<title>[root] module.ec2_instance.aws_security_group.security_group (expand)&#45;&gt;[root] module.ec2_instance.var.ssh_ip_address (expand)</title>
<path fill="none" stroke="black" d="M2464.08,-359.97C2367.27,-348.71 2241.21,-334.05 2146.25,-323.01"/>
<polygon fill="black" stroke="black" points="2146.63,-319.53 2136.29,-321.85 2145.82,-326.48 2146.63,-319.53"/>
</g>
<!-- [root] module.ec2_instance.var.vpc_id (expand) -->
<g id="node22" class="node">
<title>[root] module.ec2_instance.var.vpc_id (expand)</title>
<ellipse fill="none" stroke="black" cx="2524.58" cy="-306" rx="228.56" ry="18"/>
<text text-anchor="middle" x="2524.58" y="-302.3" font-family="Times,serif" font-size="14.00">[root] module.ec2_instance.var.vpc_id (expand)</text>
</g>
<!-- [root] module.ec2_instance.aws_security_group.security_group (expand)&#45;&gt;[root] module.ec2_instance.var.vpc_id (expand) -->
<g id="edge10" class="edge">
<title>[root] module.ec2_instance.aws_security_group.security_group (expand)&#45;&gt;[root] module.ec2_instance.var.vpc_id (expand)</title>
<path fill="none" stroke="black" d="M2589.32,-359.7C2578.49,-350.88 2565.16,-340.03 2553.42,-330.47"/>
<polygon fill="black" stroke="black" points="2555.56,-327.7 2545.59,-324.1 2551.14,-333.13 2555.56,-327.7"/>
</g>
<!-- [root] module.vpc.aws_internet_gateway.vpc_internet_gateway (expand) -->
<g id="node3" class="node">
<title>[root] module.vpc.aws_internet_gateway.vpc_internet_gateway (expand)</title>
<polygon fill="none" stroke="black" points="2914.58,-252 2494.58,-252 2494.58,-216 2914.58,-216 2914.58,-252"/>
<text text-anchor="middle" x="2704.58" y="-230.3" font-family="Times,serif" font-size="14.00">module.vpc.aws_internet_gateway.vpc_internet_gateway</text>
</g>
<!-- [root] module.vpc.aws_vpc.vpc (expand) -->
<g id="node8" class="node">
<title>[root] module.vpc.aws_vpc.vpc (expand)</title>
<polygon fill="none" stroke="black" points="3177.08,-180 2986.08,-180 2986.08,-144 3177.08,-144 3177.08,-180"/>
<text text-anchor="middle" x="3081.58" y="-158.3" font-family="Times,serif" font-size="14.00">module.vpc.aws_vpc.vpc</text>
</g>
<!-- [root] module.vpc.aws_internet_gateway.vpc_internet_gateway (expand)&#45;&gt;[root] module.vpc.aws_vpc.vpc (expand) -->
<g id="edge27" class="edge">
<title>[root] module.vpc.aws_internet_gateway.vpc_internet_gateway (expand)&#45;&gt;[root] module.vpc.aws_vpc.vpc (expand)</title>
<path fill="none" stroke="black" d="M2796.32,-215.97C2851.73,-205.68 2922.45,-192.55 2979.61,-181.93"/>
<polygon fill="black" stroke="black" points="2980.56,-185.32 2989.75,-180.05 2979.28,-178.43 2980.56,-185.32"/>
</g>
<!-- [root] module.vpc.aws_route.vpc_route (expand) -->
<g id="node4" class="node">
<title>[root] module.vpc.aws_route.vpc_route (expand)</title>
<polygon fill="none" stroke="black" points="3089.58,-396 2839.58,-396 2839.58,-360 3089.58,-360 3089.58,-396"/>
<text text-anchor="middle" x="2964.58" y="-374.3" font-family="Times,serif" font-size="14.00">module.vpc.aws_route.vpc_route</text>
</g>
<!-- [root] module.vpc.aws_route_table.vpc_route_table (expand) -->
<g id="node5" class="node">
<title>[root] module.vpc.aws_route_table.vpc_route_table (expand)</title>
<polygon fill="none" stroke="black" points="3106.08,-324 2771.08,-324 2771.08,-288 3106.08,-288 3106.08,-324"/>
<text text-anchor="middle" x="2938.58" y="-302.3" font-family="Times,serif" font-size="14.00">module.vpc.aws_route_table.vpc_route_table</text>
</g>
<!-- [root] module.vpc.aws_route.vpc_route (expand)&#45;&gt;[root] module.vpc.aws_route_table.vpc_route_table (expand) -->
<g id="edge28" class="edge">
<title>[root] module.vpc.aws_route.vpc_route (expand)&#45;&gt;[root] module.vpc.aws_route_table.vpc_route_table (expand)</title>
<path fill="none" stroke="black" d="M2958.15,-359.7C2955.22,-351.81 2951.69,-342.3 2948.44,-333.55"/>
<polygon fill="black" stroke="black" points="2951.69,-332.26 2944.93,-324.1 2945.13,-334.7 2951.69,-332.26"/>
</g>
<!-- [root] module.vpc.aws_route_table.vpc_route_table (expand)&#45;&gt;[root] module.vpc.aws_internet_gateway.vpc_internet_gateway (expand) -->
<g id="edge29" class="edge">
<title>[root] module.vpc.aws_route_table.vpc_route_table (expand)&#45;&gt;[root] module.vpc.aws_internet_gateway.vpc_internet_gateway (expand)</title>
<path fill="none" stroke="black" d="M2881.63,-287.97C2848.37,-278.01 2806.22,-265.41 2771.39,-254.99"/>
<polygon fill="black" stroke="black" points="2772.36,-251.62 2761.78,-252.11 2770.35,-258.33 2772.36,-251.62"/>
</g>
<!-- [root] module.vpc.aws_route_table_association.vpc_route_table_association (expand) -->
<g id="node6" class="node">
<title>[root] module.vpc.aws_route_table_association.vpc_route_table_association (expand)</title>
<polygon fill="none" stroke="black" points="3708.58,-396 3200.58,-396 3200.58,-360 3708.58,-360 3708.58,-396"/>
<text text-anchor="middle" x="3454.58" y="-374.3" font-family="Times,serif" font-size="14.00">module.vpc.aws_route_table_association.vpc_route_table_association</text>
</g>
<!-- [root] module.vpc.aws_route_table_association.vpc_route_table_association (expand)&#45;&gt;[root] module.vpc.aws_route_table.vpc_route_table (expand) -->
<g id="edge30" class="edge">
<title>[root] module.vpc.aws_route_table_association.vpc_route_table_association (expand)&#45;&gt;[root] module.vpc.aws_route_table.vpc_route_table (expand)</title>
<path fill="none" stroke="black" d="M3329.01,-359.97C3251.91,-349.51 3153.16,-336.11 3074.27,-325.41"/>
<polygon fill="black" stroke="black" points="3074.64,-321.93 3064.26,-324.05 3073.7,-328.86 3074.64,-321.93"/>
</g>
<!-- [root] module.vpc.aws_subnet.vpc_public_subnet (expand) -->
<g id="node7" class="node">
<title>[root] module.vpc.aws_subnet.vpc_public_subnet (expand)</title>
<polygon fill="none" stroke="black" points="3731.08,-252 3410.08,-252 3410.08,-216 3731.08,-216 3731.08,-252"/>
<text text-anchor="middle" x="3570.58" y="-230.3" font-family="Times,serif" font-size="14.00">module.vpc.aws_subnet.vpc_public_subnet</text>
</g>
<!-- [root] module.vpc.aws_route_table_association.vpc_route_table_association (expand)&#45;&gt;[root] module.vpc.aws_subnet.vpc_public_subnet (expand) -->
<g id="edge31" class="edge">
<title>[root] module.vpc.aws_route_table_association.vpc_route_table_association (expand)&#45;&gt;[root] module.vpc.aws_subnet.vpc_public_subnet (expand)</title>
<path fill="none" stroke="black" d="M3559.49,-359.94C3578.36,-352.05 3595.76,-340.6 3607.58,-324 3621.53,-304.41 3608.15,-278.76 3593.73,-260.03"/>
<polygon fill="black" stroke="black" points="3596.38,-257.75 3587.35,-252.22 3590.96,-262.18 3596.38,-257.75"/>
</g>
<!-- [root] module.vpc.aws_subnet.vpc_public_subnet (expand)&#45;&gt;[root] module.vpc.aws_vpc.vpc (expand) -->
<g id="edge32" class="edge">
<title>[root] module.vpc.aws_subnet.vpc_public_subnet (expand)&#45;&gt;[root] module.vpc.aws_vpc.vpc (expand)</title>
<path fill="none" stroke="black" d="M3451.58,-215.97C3370.95,-204.42 3265.35,-189.31 3187.6,-178.18"/>
<polygon fill="black" stroke="black" points="3187.7,-174.66 3177.31,-176.7 3186.71,-181.59 3187.7,-174.66"/>
</g>
<!-- [root] module.vpc.var.subnet_base_ip (expand) -->
<g id="node27" class="node">
<title>[root] module.vpc.var.subnet_base_ip (expand)</title>
<ellipse fill="none" stroke="black" cx="3597.58" cy="-162" rx="226.66" ry="18"/>
<text text-anchor="middle" x="3597.58" y="-158.3" font-family="Times,serif" font-size="14.00">[root] module.vpc.var.subnet_base_ip (expand)</text>
</g>
<!-- [root] module.vpc.aws_subnet.vpc_public_subnet (expand)&#45;&gt;[root] module.vpc.var.subnet_base_ip (expand) -->
<g id="edge33" class="edge">
<title>[root] module.vpc.aws_subnet.vpc_public_subnet (expand)&#45;&gt;[root] module.vpc.var.subnet_base_ip (expand)</title>
<path fill="none" stroke="black" d="M3577.25,-215.7C3580.29,-207.81 3583.96,-198.3 3587.34,-189.55"/>
<polygon fill="black" stroke="black" points="3590.65,-190.69 3590.98,-180.1 3584.12,-188.17 3590.65,-190.69"/>
</g>
<!-- [root] provider[&quot;registry.terraform.io/hashicorp/aws&quot;] -->
<g id="node10" class="node">
<title>[root] provider[&quot;registry.terraform.io/hashicorp/aws&quot;]</title>
<polygon fill="none" stroke="black" points="2419.58,-108 2094.31,-90 2419.58,-72 2744.84,-90 2419.58,-108"/>
<text text-anchor="middle" x="2419.58" y="-86.3" font-family="Times,serif" font-size="14.00">provider[&quot;registry.terraform.io/hashicorp/aws&quot;]</text>
</g>
<!-- [root] module.vpc.aws_vpc.vpc (expand)&#45;&gt;[root] provider[&quot;registry.terraform.io/hashicorp/aws&quot;] -->
<g id="edge36" class="edge">
<title>[root] module.vpc.aws_vpc.vpc (expand)&#45;&gt;[root] provider[&quot;registry.terraform.io/hashicorp/aws&quot;]</title>
<path fill="none" stroke="black" d="M2986.02,-150.9C2866.88,-138.3 2663.36,-116.78 2535.45,-103.25"/>
<polygon fill="black" stroke="black" points="2535.54,-99.74 2525.23,-102.17 2534.81,-106.7 2535.54,-99.74"/>
</g>
<!-- [root] module.vpc.var.vpc_base_ip (expand) -->
<g id="node28" class="node">
<title>[root] module.vpc.var.vpc_base_ip (expand)</title>
<ellipse fill="none" stroke="black" cx="2974.58" cy="-90" rx="211.46" ry="18"/>
<text text-anchor="middle" x="2974.58" y="-86.3" font-family="Times,serif" font-size="14.00">[root] module.vpc.var.vpc_base_ip (expand)</text>
</g>
<!-- [root] module.vpc.aws_vpc.vpc (expand)&#45;&gt;[root] module.vpc.var.vpc_base_ip (expand) -->
<g id="edge34" class="edge">
<title>[root] module.vpc.aws_vpc.vpc (expand)&#45;&gt;[root] module.vpc.var.vpc_base_ip (expand)</title>
<path fill="none" stroke="black" d="M3055.4,-143.88C3041.44,-134.74 3024.08,-123.38 3009.03,-113.54"/>
<polygon fill="black" stroke="black" points="3010.77,-110.49 3000.48,-107.95 3006.93,-116.35 3010.77,-110.49"/>
</g>
<!-- [root] module.vpc.var.vpc_tags (expand) -->
<g id="node29" class="node">
<title>[root] module.vpc.var.vpc_tags (expand)</title>
<ellipse fill="none" stroke="black" cx="3400.58" cy="-90" rx="196.07" ry="18"/>
<text text-anchor="middle" x="3400.58" y="-86.3" font-family="Times,serif" font-size="14.00">[root] module.vpc.var.vpc_tags (expand)</text>
</g>
<!-- [root] module.vpc.aws_vpc.vpc (expand)&#45;&gt;[root] module.vpc.var.vpc_tags (expand) -->
<g id="edge35" class="edge">
<title>[root] module.vpc.aws_vpc.vpc (expand)&#45;&gt;[root] module.vpc.var.vpc_tags (expand)</title>
<path fill="none" stroke="black" d="M3159.2,-143.97C3207.52,-133.36 3269.57,-119.75 3318.67,-108.97"/>
<polygon fill="black" stroke="black" points="3319.6,-112.35 3328.62,-106.79 3318.1,-105.51 3319.6,-112.35"/>
</g>
<!-- [root] output.ec2_instance_public_ip -->
<g id="node9" class="node">
<title>[root] output.ec2_instance_public_ip</title>
<polygon fill="none" stroke="black" points="2366.58,-612 2142.58,-612 2142.58,-576 2372.58,-576 2372.58,-606 2366.58,-612"/>
<polyline fill="none" stroke="black" points="2366.58,-612 2366.58,-606 "/>
<polyline fill="none" stroke="black" points="2372.58,-606 2366.58,-606 "/>
<text text-anchor="middle" x="2257.58" y="-590.3" font-family="Times,serif" font-size="14.00">output.ec2_instance_public_ip</text>
</g>
<!-- [root] module.ec2_instance.output.ec2_public_ip (expand) -->
<g id="node14" class="node">
<title>[root] module.ec2_instance.output.ec2_public_ip (expand)</title>
<ellipse fill="none" stroke="black" cx="2245.58" cy="-522" rx="278.35" ry="18"/>
<text text-anchor="middle" x="2245.58" y="-518.3" font-family="Times,serif" font-size="14.00">[root] module.ec2_instance.output.ec2_public_ip (expand)</text>
</g>
<!-- [root] output.ec2_instance_public_ip&#45;&gt;[root] module.ec2_instance.output.ec2_public_ip (expand) -->
<g id="edge42" class="edge">
<title>[root] output.ec2_instance_public_ip&#45;&gt;[root] module.ec2_instance.output.ec2_public_ip (expand)</title>
<path fill="none" stroke="black" d="M2254.61,-575.7C2253.29,-567.98 2251.7,-558.71 2250.22,-550.11"/>
<polygon fill="black" stroke="black" points="2253.65,-549.37 2248.51,-540.1 2246.75,-550.55 2253.65,-549.37"/>
</g>
<!-- [root] var.aws_region -->
<g id="node11" class="node">
<title>[root] var.aws_region</title>
<polygon fill="none" stroke="black" points="2475.08,-36 2358.08,-36 2358.08,0 2481.08,0 2481.08,-30 2475.08,-36"/>
<polyline fill="none" stroke="black" points="2475.08,-36 2475.08,-30 "/>
<polyline fill="none" stroke="black" points="2481.08,-30 2475.08,-30 "/>
<text text-anchor="middle" x="2419.58" y="-14.3" font-family="Times,serif" font-size="14.00">var.aws_region</text>
</g>
<!-- [root] provider[&quot;registry.terraform.io/hashicorp/aws&quot;]&#45;&gt;[root] var.aws_region -->
<g id="edge46" class="edge">
<title>[root] provider[&quot;registry.terraform.io/hashicorp/aws&quot;]&#45;&gt;[root] var.aws_region</title>
<path fill="none" stroke="black" d="M2419.58,-71.7C2419.58,-63.98 2419.58,-54.71 2419.58,-46.11"/>
<polygon fill="black" stroke="black" points="2423.08,-46.1 2419.58,-36.1 2416.08,-46.1 2423.08,-46.1"/>
</g>
<!-- [root] var.ssh_ip_address -->
<g id="node12" class="node">
<title>[root] var.ssh_ip_address</title>
<polygon fill="none" stroke="black" points="2077.58,-252 1933.58,-252 1933.58,-216 2083.58,-216 2083.58,-246 2077.58,-252"/>
<polyline fill="none" stroke="black" points="2077.58,-252 2077.58,-246 "/>
<polyline fill="none" stroke="black" points="2083.58,-246 2077.58,-246 "/>
<text text-anchor="middle" x="2008.58" y="-230.3" font-family="Times,serif" font-size="14.00">var.ssh_ip_address</text>
</g>
<!-- [root] module.ec2_instance (close) -->
<g id="node13" class="node">
<title>[root] module.ec2_instance (close)</title>
<ellipse fill="none" stroke="black" cx="2581.58" cy="-594" rx="168.97" ry="18"/>
<text text-anchor="middle" x="2581.58" y="-590.3" font-family="Times,serif" font-size="14.00">[root] module.ec2_instance (close)</text>
</g>
<!-- [root] module.ec2_instance (close)&#45;&gt;[root] module.ec2_instance.output.ec2_public_ip (expand) -->
<g id="edge1" class="edge">
<title>[root] module.ec2_instance (close)&#45;&gt;[root] module.ec2_instance.output.ec2_public_ip (expand)</title>
<path fill="none" stroke="black" d="M2508.26,-577.72C2456.9,-567.03 2388.03,-552.68 2333.68,-541.36"/>
<polygon fill="black" stroke="black" points="2334.22,-537.89 2323.72,-539.28 2332.79,-544.74 2334.22,-537.89"/>
</g>
<!-- [root] module.ec2_instance.output.ec2_public_ip (expand)&#45;&gt;[root] module.ec2_instance.aws_instance.ec2_instance (expand) -->
<g id="edge11" class="edge">
<title>[root] module.ec2_instance.output.ec2_public_ip (expand)&#45;&gt;[root] module.ec2_instance.aws_instance.ec2_instance (expand)</title>
<path fill="none" stroke="black" d="M2114.77,-506.11C2019.89,-495.31 1891.03,-480.64 1790.09,-469.16"/>
<polygon fill="black" stroke="black" points="1790.44,-465.67 1780.11,-468.02 1789.65,-472.63 1790.44,-465.67"/>
</g>
<!-- [root] module.ec2_instance (expand) -->
<g id="node23" class="node">
<title>[root] module.ec2_instance (expand)</title>
<ellipse fill="none" stroke="black" cx="1528.58" cy="-234" rx="179.27" ry="18"/>
<text text-anchor="middle" x="1528.58" y="-230.3" font-family="Times,serif" font-size="14.00">[root] module.ec2_instance (expand)</text>
</g>
<!-- [root] module.ec2_instance.var.instance_ami (expand)&#45;&gt;[root] module.ec2_instance (expand) -->
<g id="edge12" class="edge">
<title>[root] module.ec2_instance.var.instance_ami (expand)&#45;&gt;[root] module.ec2_instance (expand)</title>
<path fill="none" stroke="black" d="M948.55,-291C1078.5,-278.46 1267.64,-260.19 1394.23,-247.97"/>
<polygon fill="black" stroke="black" points="1394.76,-251.44 1404.38,-246.99 1394.09,-244.47 1394.76,-251.44"/>
</g>
<!-- [root] module.ec2_instance.var.instance_tags (expand)&#45;&gt;[root] module.ec2_instance (expand) -->
<g id="edge13" class="edge">
<title>[root] module.ec2_instance.var.instance_tags (expand)&#45;&gt;[root] module.ec2_instance (expand)</title>
<path fill="none" stroke="black" d="M447.65,-293.2C476.74,-291.42 506.47,-289.63 534.58,-288 825.61,-271.15 1164.7,-253.49 1362.15,-243.41"/>
<polygon fill="black" stroke="black" points="1362.51,-246.89 1372.31,-242.89 1362.15,-239.9 1362.51,-246.89"/>
</g>
<!-- [root] module.ec2_instance.var.instance_type (expand)&#45;&gt;[root] module.ec2_instance (expand) -->
<g id="edge14" class="edge">
<title>[root] module.ec2_instance.var.instance_type (expand)&#45;&gt;[root] module.ec2_instance (expand)</title>
<path fill="none" stroke="black" d="M1417.92,-288.05C1437.99,-278.43 1463.29,-266.3 1484.63,-256.07"/>
<polygon fill="black" stroke="black" points="1486.31,-259.15 1493.81,-251.67 1483.28,-252.84 1486.31,-259.15"/>
</g>
<!-- [root] module.ec2_instance.var.key_name (expand)&#45;&gt;[root] module.ec2_instance (expand) -->
<g id="edge15" class="edge">
<title>[root] module.ec2_instance.var.key_name (expand)&#45;&gt;[root] module.ec2_instance (expand)</title>
<path fill="none" stroke="black" d="M1642.84,-359.94C1654.82,-340.98 1669.28,-310.13 1654.58,-288 1644.55,-272.91 1629.3,-262.1 1612.82,-254.37"/>
<polygon fill="black" stroke="black" points="1614.14,-251.12 1603.57,-250.38 1611.37,-257.55 1614.14,-251.12"/>
</g>
<!-- [root] module.ec2_instance.var.subnet_id (expand)&#45;&gt;[root] module.ec2_instance (expand) -->
<g id="edge18" class="edge">
<title>[root] module.ec2_instance.var.subnet_id (expand)&#45;&gt;[root] module.ec2_instance (expand)</title>
<path fill="none" stroke="black" d="M1985.31,-363.92C1889.88,-354.42 1776.55,-340.39 1730.58,-324 1702,-313.81 1699.84,-301.31 1672.58,-288 1646.36,-275.2 1616.22,-263.66 1590.32,-254.63"/>
<polygon fill="black" stroke="black" points="1591.21,-251.24 1580.61,-251.3 1588.93,-257.86 1591.21,-251.24"/>
</g>
<!-- [root] module.vpc.output.subnet_id (expand) -->
<g id="node24" class="node">
<title>[root] module.vpc.output.subnet_id (expand)</title>
<ellipse fill="none" stroke="black" cx="3380.58" cy="-306" rx="217.96" ry="18"/>
<text text-anchor="middle" x="3380.58" y="-302.3" font-family="Times,serif" font-size="14.00">[root] module.vpc.output.subnet_id (expand)</text>
</g>
<!-- [root] module.ec2_instance.var.subnet_id (expand)&#45;&gt;[root] module.vpc.output.subnet_id (expand) -->
<g id="edge19" class="edge">
<title>[root] module.ec2_instance.var.subnet_id (expand)&#45;&gt;[root] module.vpc.output.subnet_id (expand)</title>
<path fill="none" stroke="black" d="M2308.35,-365.12C2335.84,-363.32 2363.99,-361.55 2390.58,-360 2712.65,-341.18 2793.48,-342.33 3115.58,-324 3144.94,-322.33 3176.12,-320.44 3206.39,-318.53"/>
<polygon fill="black" stroke="black" points="3206.86,-322.01 3216.62,-317.89 3206.42,-315.03 3206.86,-322.01"/>
</g>
<!-- [root] module.ec2_instance.var.user_data (expand)&#45;&gt;[root] module.ec2_instance (expand) -->
<g id="edge20" class="edge">
<title>[root] module.ec2_instance.var.user_data (expand)&#45;&gt;[root] module.ec2_instance (expand)</title>
<path fill="none" stroke="black" d="M1084.35,-359.99C1085.07,-339.57 1089.64,-305.87 1110.58,-288 1145.91,-257.85 1249.07,-244.57 1344.06,-238.84"/>
<polygon fill="black" stroke="black" points="1344.33,-242.33 1354.11,-238.26 1343.92,-235.35 1344.33,-242.33"/>
</g>
<!-- [root] module.ec2_instance.var.ssh_ip_address (expand)&#45;&gt;[root] var.ssh_ip_address -->
<g id="edge17" class="edge">
<title>[root] module.ec2_instance.var.ssh_ip_address (expand)&#45;&gt;[root] var.ssh_ip_address</title>
<path fill="none" stroke="black" d="M2008.58,-287.7C2008.58,-279.98 2008.58,-270.71 2008.58,-262.11"/>
<polygon fill="black" stroke="black" points="2012.08,-262.1 2008.58,-252.1 2005.08,-262.1 2012.08,-262.1"/>
</g>
<!-- [root] module.ec2_instance.var.ssh_ip_address (expand)&#45;&gt;[root] module.ec2_instance (expand) -->
<g id="edge16" class="edge">
<title>[root] module.ec2_instance.var.ssh_ip_address (expand)&#45;&gt;[root] module.ec2_instance (expand)</title>
<path fill="none" stroke="black" d="M1902.05,-289.46C1822.85,-277.92 1715.23,-262.22 1635.85,-250.64"/>
<polygon fill="black" stroke="black" points="1636.23,-247.16 1625.83,-249.18 1635.22,-254.09 1636.23,-247.16"/>
</g>
<!-- [root] module.ec2_instance.var.vpc_id (expand)&#45;&gt;[root] module.ec2_instance (expand) -->
<g id="edge21" class="edge">
<title>[root] module.ec2_instance.var.vpc_id (expand)&#45;&gt;[root] module.ec2_instance (expand)</title>
<path fill="none" stroke="black" d="M2361.67,-293.33C2336.52,-291.54 2310.85,-289.72 2286.58,-288 2077.06,-273.19 1834.96,-256.3 1681.84,-245.65"/>
<polygon fill="black" stroke="black" points="1681.65,-242.13 1671.43,-244.92 1681.16,-249.11 1681.65,-242.13"/>
</g>
<!-- [root] module.vpc.output.vpc_id (expand) -->
<g id="node25" class="node">
<title>[root] module.vpc.output.vpc_id (expand)</title>
<ellipse fill="none" stroke="black" cx="3134.58" cy="-234" rx="202.26" ry="18"/>
<text text-anchor="middle" x="3134.58" y="-230.3" font-family="Times,serif" font-size="14.00">[root] module.vpc.output.vpc_id (expand)</text>
</g>
<!-- [root] module.ec2_instance.var.vpc_id (expand)&#45;&gt;[root] module.vpc.output.vpc_id (expand) -->
<g id="edge22" class="edge">
<title>[root] module.ec2_instance.var.vpc_id (expand)&#45;&gt;[root] module.vpc.output.vpc_id (expand)</title>
<path fill="none" stroke="black" d="M2648.02,-290.83C2752.06,-278.9 2900.42,-261.87 3005.91,-249.76"/>
<polygon fill="black" stroke="black" points="3006.45,-253.23 3015.98,-248.61 3005.65,-246.27 3006.45,-253.23"/>
</g>
<!-- [root] module.vpc.output.subnet_id (expand)&#45;&gt;[root] module.vpc.aws_subnet.vpc_public_subnet (expand) -->
<g id="edge37" class="edge">
<title>[root] module.vpc.output.subnet_id (expand)&#45;&gt;[root] module.vpc.aws_subnet.vpc_public_subnet (expand)</title>
<path fill="none" stroke="black" d="M3426.09,-288.23C3452.6,-278.46 3486.25,-266.07 3514.41,-255.69"/>
<polygon fill="black" stroke="black" points="3515.94,-258.86 3524.12,-252.12 3513.52,-252.29 3515.94,-258.86"/>
</g>
<!-- [root] module.vpc.output.vpc_id (expand)&#45;&gt;[root] module.vpc.aws_vpc.vpc (expand) -->
<g id="edge38" class="edge">
<title>[root] module.vpc.output.vpc_id (expand)&#45;&gt;[root] module.vpc.aws_vpc.vpc (expand)</title>
<path fill="none" stroke="black" d="M3121.48,-215.7C3115.19,-207.39 3107.53,-197.28 3100.61,-188.14"/>
<polygon fill="black" stroke="black" points="3103.35,-185.96 3094.53,-180.1 3097.77,-190.19 3103.35,-185.96"/>
</g>
<!-- [root] module.vpc (close) -->
<g id="node26" class="node">
<title>[root] module.vpc (close)</title>
<ellipse fill="none" stroke="black" cx="3153.58" cy="-450" rx="126.18" ry="18"/>
<text text-anchor="middle" x="3153.58" y="-446.3" font-family="Times,serif" font-size="14.00">[root] module.vpc (close)</text>
</g>
<!-- [root] module.vpc (close)&#45;&gt;[root] module.vpc.aws_route.vpc_route (expand) -->
<g id="edge23" class="edge">
<title>[root] module.vpc (close)&#45;&gt;[root] module.vpc.aws_route.vpc_route (expand)</title>
<path fill="none" stroke="black" d="M3110.22,-432.94C3083.49,-423.04 3048.94,-410.25 3020.21,-399.6"/>
<polygon fill="black" stroke="black" points="3021.3,-396.28 3010.7,-396.08 3018.87,-402.84 3021.3,-396.28"/>
</g>
<!-- [root] module.vpc (close)&#45;&gt;[root] module.vpc.aws_route_table_association.vpc_route_table_association (expand) -->
<g id="edge24" class="edge">
<title>[root] module.vpc (close)&#45;&gt;[root] module.vpc.aws_route_table_association.vpc_route_table_association (expand)</title>
<path fill="none" stroke="black" d="M3216.68,-434.33C3261.59,-423.88 3322.4,-409.74 3371.3,-398.37"/>
<polygon fill="black" stroke="black" points="3372.28,-401.73 3381.22,-396.06 3370.69,-394.91 3372.28,-401.73"/>
</g>
<!-- [root] module.vpc (close)&#45;&gt;[root] module.vpc.output.subnet_id (expand) -->
<g id="edge25" class="edge">
<title>[root] module.vpc (close)&#45;&gt;[root] module.vpc.output.subnet_id (expand)</title>
<path fill="none" stroke="black" d="M3156.29,-431.99C3160.4,-411.91 3170.11,-378.84 3191.58,-360 3210.15,-343.7 3233.36,-332.38 3257.1,-324.53"/>
<polygon fill="black" stroke="black" points="3258.42,-327.79 3266.93,-321.48 3256.34,-321.1 3258.42,-327.79"/>
</g>
<!-- [root] module.vpc (close)&#45;&gt;[root] module.vpc.output.vpc_id (expand) -->
<g id="edge26" class="edge">
<title>[root] module.vpc (close)&#45;&gt;[root] module.vpc.output.vpc_id (expand)</title>
<path fill="none" stroke="black" d="M3152.05,-431.85C3148.77,-394.83 3140.99,-307.18 3137.01,-262.39"/>
<polygon fill="black" stroke="black" points="3140.48,-261.88 3136.11,-252.23 3133.5,-262.5 3140.48,-261.88"/>
</g>
<!-- [root] module.vpc (expand) -->
<g id="node30" class="node">
<title>[root] module.vpc (expand)</title>
<ellipse fill="none" stroke="black" cx="3400.58" cy="-18" rx="135.68" ry="18"/>
<text text-anchor="middle" x="3400.58" y="-14.3" font-family="Times,serif" font-size="14.00">[root] module.vpc (expand)</text>
</g>
<!-- [root] module.vpc.var.subnet_base_ip (expand)&#45;&gt;[root] module.vpc (expand) -->
<g id="edge39" class="edge">
<title>[root] module.vpc.var.subnet_base_ip (expand)&#45;&gt;[root] module.vpc (expand)</title>
<path fill="none" stroke="black" d="M3605.42,-143.99C3613.1,-124.5 3621.53,-92.61 3605.58,-72 3592.08,-54.57 3546.22,-41.84 3501.3,-33.23"/>
<polygon fill="black" stroke="black" points="3501.91,-29.78 3491.44,-31.4 3500.63,-36.66 3501.91,-29.78"/>
</g>
<!-- [root] module.vpc.var.vpc_base_ip (expand)&#45;&gt;[root] module.vpc (expand) -->
<g id="edge40" class="edge">
<title>[root] module.vpc.var.vpc_base_ip (expand)&#45;&gt;[root] module.vpc (expand)</title>
<path fill="none" stroke="black" d="M3067.01,-73.81C3138.65,-62.04 3237.41,-45.81 3308.86,-34.07"/>
<polygon fill="black" stroke="black" points="3309.45,-37.52 3318.75,-32.45 3308.32,-30.61 3309.45,-37.52"/>
</g>
<!-- [root] module.vpc.var.vpc_tags (expand)&#45;&gt;[root] module.vpc (expand) -->
<g id="edge41" class="edge">
<title>[root] module.vpc.var.vpc_tags (expand)&#45;&gt;[root] module.vpc (expand)</title>
<path fill="none" stroke="black" d="M3400.58,-71.7C3400.58,-63.98 3400.58,-54.71 3400.58,-46.11"/>
<polygon fill="black" stroke="black" points="3404.08,-46.1 3400.58,-36.1 3397.08,-46.1 3404.08,-46.1"/>
</g>
<!-- [root] provider[&quot;registry.terraform.io/hashicorp/aws&quot;] (close) -->
<g id="node31" class="node">
<title>[root] provider[&quot;registry.terraform.io/hashicorp/aws&quot;] (close)</title>
<ellipse fill="none" stroke="black" cx="2833.58" cy="-522" rx="291.65" ry="18"/>
<text text-anchor="middle" x="2833.58" y="-518.3" font-family="Times,serif" font-size="14.00">[root] provider[&quot;registry.terraform.io/hashicorp/aws&quot;] (close)</text>
</g>
<!-- [root] provider[&quot;registry.terraform.io/hashicorp/aws&quot;] (close)&#45;&gt;[root] module.ec2_instance.aws_instance.ec2_instance (expand) -->
<g id="edge43" class="edge">
<title>[root] provider[&quot;registry.terraform.io/hashicorp/aws&quot;] (close)&#45;&gt;[root] module.ec2_instance.aws_instance.ec2_instance (expand)</title>
<path fill="none" stroke="black" d="M2629.5,-509.13C2403.38,-495.97 2041.63,-474.92 1821.11,-462.09"/>
<polygon fill="black" stroke="black" points="1821.23,-458.59 1811.04,-461.5 1820.82,-465.58 1821.23,-458.59"/>
</g>
<!-- [root] provider[&quot;registry.terraform.io/hashicorp/aws&quot;] (close)&#45;&gt;[root] module.vpc.aws_route.vpc_route (expand) -->
<g id="edge44" class="edge">
<title>[root] provider[&quot;registry.terraform.io/hashicorp/aws&quot;] (close)&#45;&gt;[root] module.vpc.aws_route.vpc_route (expand)</title>
<path fill="none" stroke="black" d="M2849.38,-503.87C2872.39,-478.92 2915.27,-432.45 2941.72,-403.77"/>
<polygon fill="black" stroke="black" points="2944.51,-405.91 2948.72,-396.19 2939.37,-401.17 2944.51,-405.91"/>
</g>
<!-- [root] provider[&quot;registry.terraform.io/hashicorp/aws&quot;] (close)&#45;&gt;[root] module.vpc.aws_route_table_association.vpc_route_table_association (expand) -->
<g id="edge45" class="edge">
<title>[root] provider[&quot;registry.terraform.io/hashicorp/aws&quot;] (close)&#45;&gt;[root] module.vpc.aws_route_table_association.vpc_route_table_association (expand)</title>
<path fill="none" stroke="black" d="M3064.78,-510.99C3137.6,-503.37 3217.53,-490.29 3288.58,-468 3337.63,-452.61 3389.04,-422.55 3421.41,-401.65"/>
<polygon fill="black" stroke="black" points="3423.57,-404.42 3430.02,-396.02 3419.74,-398.57 3423.57,-404.42"/>
</g>
<!-- [root] root -->
<g id="node32" class="node">
<title>[root] root</title>
<ellipse fill="none" stroke="black" cx="2679.58" cy="-666" rx="58.49" ry="18"/>
<text text-anchor="middle" x="2679.58" y="-662.3" font-family="Times,serif" font-size="14.00">[root] root</text>
</g>
<!-- [root] root&#45;&gt;[root] output.ec2_instance_public_ip -->
<g id="edge49" class="edge">
<title>[root] root&#45;&gt;[root] output.ec2_instance_public_ip</title>
<path fill="none" stroke="black" d="M2629.09,-656.63C2565.54,-646.08 2454.51,-627.67 2370.33,-613.7"/>
<polygon fill="black" stroke="black" points="2370.9,-610.25 2360.46,-612.07 2369.75,-617.16 2370.9,-610.25"/>
</g>
<!-- [root] root&#45;&gt;[root] module.ec2_instance (close) -->
<g id="edge47" class="edge">
<title>[root] root&#45;&gt;[root] module.ec2_instance (close)</title>
<path fill="none" stroke="black" d="M2657.34,-649.12C2644.52,-639.96 2628.19,-628.29 2613.97,-618.14"/>
<polygon fill="black" stroke="black" points="2615.61,-615.01 2605.44,-612.04 2611.54,-620.7 2615.61,-615.01"/>
</g>
<!-- [root] root&#45;&gt;[root] module.vpc (close) -->
<g id="edge48" class="edge">
<title>[root] root&#45;&gt;[root] module.vpc (close)</title>
<path fill="none" stroke="black" d="M2731.71,-657.56C2839,-641.18 3079.12,-598.76 3134.58,-540 3150.04,-523.62 3154.17,-497.87 3154.8,-478.28"/>
<polygon fill="black" stroke="black" points="3158.3,-478.13 3154.84,-468.12 3151.3,-478.11 3158.3,-478.13"/>
</g>
<!-- [root] root&#45;&gt;[root] provider[&quot;registry.terraform.io/hashicorp/aws&quot;] (close) -->
<g id="edge50" class="edge">
<title>[root] root&#45;&gt;[root] provider[&quot;registry.terraform.io/hashicorp/aws&quot;] (close)</title>
<path fill="none" stroke="black" d="M2706.55,-649.85C2722.76,-640.11 2743.33,-626.57 2759.58,-612 2781.11,-592.68 2801.83,-566.95 2815.83,-548.12"/>
<polygon fill="black" stroke="black" points="2818.69,-550.14 2821.78,-540.01 2813.04,-546.01 2818.69,-550.14"/>
</g>
</g>
</svg>
